<?xml version="1.0" encoding="utf-8"?>
<!-- Generator: Adobe Illustrator 16.0.4, SVG Export Plug-In . SVG Version: 6.00 Build 0)  -->
<!DOCTYPE svg PUBLIC "-//W3C//DTD SVG 1.1//EN" "http://www.w3.org/Graphics/SVG/1.1/DTD/svg11.dtd">
<svg version="1.1" id="Calque_1" xmlns="http://www.w3.org/2000/svg" xmlns:xlink="http://www.w3.org/1999/xlink" x="0px" y="0px"
	 width="595.279px" height="621px" viewBox="0 40.445 595.279 621" enable-background="new 0 40.445 595.279 621"
	 xml:space="preserve">
<title>12</title>
<path d="M512.941,515.189c-11.311,0-21.43,3.572-29.169,10.12L369.478,412.207c8.93-10.12,16.073-21.43,20.24-34.526l76.195-5.357
	c8.334,14.287,23.812,23.811,41.074,23.811c26.192,0,47.623-21.43,47.623-47.623c0-26.192-21.431-47.622-47.623-47.622
	s-47.622,21.43-47.622,47.622c0,4.167,0.596,8.334,1.786,11.906l-68.457,4.762c1.19-5.357,1.785-11.31,1.785-16.668
	c0-46.432-32.74-84.53-76.791-93.459l-5.357-80.958c19.645-5.953,33.931-23.811,33.931-45.836c0-26.192-21.43-47.623-47.622-47.623
	s-47.622,21.43-47.622,47.623s21.43,47.622,47.622,47.622c0.596,0,1.19,0,1.786,0l4.762,77.982c-2.381,0-4.167-0.595-6.548-0.595
	c-23.216,0-44.051,8.334-60.719,22.025L121.842,157.427c6.548-8.334,10.119-18.454,10.119-29.169
	c0-26.192-21.43-47.623-47.622-47.623s-47.622,21.43-47.622,47.623s21.43,47.623,47.622,47.623c10.715,0,20.835-3.572,29.169-10.12
	l116.079,117.271c-16.072,17.263-26.191,39.884-26.191,65.48c0,23.812,8.929,45.837,23.216,62.504L112.912,524.715
	c-7.738-5.953-17.858-9.525-28.573-9.525c-26.192,0-47.622,21.431-47.622,47.623s21.43,47.622,47.622,47.622
	s47.622-21.43,47.622-47.622c0-11.311-4.166-22.025-10.715-29.764L234.946,419.35c16.667,15.478,39.288,24.406,63.694,24.406
	c23.812,0,45.837-8.929,62.505-23.215l114.293,113.103c-5.952,8.334-10.119,17.858-10.119,29.169
	c0,26.192,21.43,47.622,47.622,47.622s47.622-21.43,47.622-47.622S539.133,515.189,512.941,515.189z M506.988,312.795
	c19.645,0,35.717,16.072,35.717,35.716c0,19.645-16.072,35.717-35.717,35.717c-19.644,0-35.717-16.073-35.717-35.717
	C471.271,328.867,487.344,312.795,506.988,312.795z M262.923,128.258c0-19.645,16.073-35.717,35.717-35.717
	c19.645,0,35.717,16.072,35.717,35.717c0,19.644-16.072,35.717-35.717,35.717C278.996,163.975,262.923,147.902,262.923,128.258z
	 M48.622,128.258c0-19.645,16.072-35.717,35.717-35.717s35.717,16.072,35.717,35.717c0,19.644-16.072,35.717-35.717,35.717
	S48.622,147.902,48.622,128.258z M84.339,598.529c-19.645,0-35.717-16.072-35.717-35.717s16.072-35.717,35.717-35.717
	s35.717,16.072,35.717,35.717S103.984,598.529,84.339,598.529z M215.301,348.511c0-45.836,37.503-83.339,83.339-83.339
	c45.837,0,83.339,37.502,83.339,83.339c0,45.837-37.502,83.339-83.339,83.339C252.804,431.851,215.301,394.348,215.301,348.511z
	 M512.941,598.529c-19.645,0-35.717-16.072-35.717-35.717s16.072-35.717,35.717-35.717s35.717,16.072,35.717,35.717
	S532.585,598.529,512.941,598.529z"/>
<text transform="matrix(1 0 0 1 1.0002 732.4688)" font-family="'HelveticaNeue-Bold'" font-size="29.764">Created by Popular</text>
<text transform="matrix(1 0 0 1 1.0002 762.2305)" font-family="'HelveticaNeue-Bold'" font-size="29.764">from the Noun Project</text>
</svg>
