<svg width="433" height="433" viewBox="0 0 433 433" fill="none" xmlns="http://www.w3.org/2000/svg">
<path d="M195.68 1.75995C198.67 0.719948 201.85 0.959948 204.99 0.949948L205 1.94995C201.87 1.90995 198.79 1.83995 195.68 1.75995Z" fill="#A49487"/>
<path d="M204.99 0.949951C209.25 0.949951 213.5 1.09995 217.77 1.20995C221.57 1.57995 225.38 1.78995 229.2 1.81995C229.67 1.99995 230.61 2.35995 231.08 2.53995C222.65 7.68995 212.78 9.57995 204 14.01C158.68 37.4799 124.61 82.76 117.58 133.66C107.78 185.27 128.98 240.5 168.1 274.89C200.13 303.46 243.63 318.59 286.43 316.52C334.86 312.55 381.78 286.14 407.39 244.35C416.08 233.19 421.67 220.11 425.63 206.63C426.7 203.59 427.8 200.24 430.81 198.58C430.84 202.15 430.74 205.81 431.74 209.28C431.95 213.52 432 217.76 432.03 222.01L431.07 221.95C432.04 216.49 427.15 220.92 426.72 223.69C409.89 265.52 373.61 297.85 331.89 313.86C297.08 326.32 258.05 327.21 222.99 315.02C183.66 301.17 149.1 274.02 128.56 237.41C109.43 200.71 101.93 156.98 113.65 116.66C123.83 75.41 150.95 39.53 185.92 15.91C193.86 11.09 202.51 7.44995 210.19 2.15995C208.46 2.05995 206.73 2.00995 205 1.94995L204.99 0.949951Z" fill="#482000"/>
<path d="M217.77 1.21006C221.56 1.04006 225.33 1.04006 229.13 1.07006L229.2 1.82006C225.38 1.79006 221.57 1.58006 217.77 1.21006Z" fill="#6D4E34"/>
<path d="M229.13 1.06999C231.43 0.449992 233.72 0.699992 236.02 1.80999C234.37 2.05999 232.73 2.31999 231.08 2.53999C230.61 2.35999 229.67 1.99999 229.2 1.81999L229.13 1.06999Z" fill="#AC9A8B"/>
<path d="M189.11 2.9C190.22 1.2 192.4 1.75 194.02 2.21C192.82 3.07 191.34 3.32 189.89 3.33L189.11 2.9Z" fill="#8B796A"/>
<path d="M194.02 2.21001C194.44 2.10001 195.26 1.87001 195.68 1.76001C198.79 1.84001 201.87 1.91001 205 1.95001C206.73 2.01001 208.46 2.06001 210.19 2.16001C202.51 7.45001 193.86 11.09 185.92 15.91C150.95 39.53 123.83 75.41 113.65 116.66C101.93 156.98 109.43 200.71 128.56 237.41C149.1 274.02 183.66 301.17 222.99 315.02C258.05 327.21 297.08 326.32 331.89 313.86C373.61 297.85 409.89 265.52 426.72 223.69C427.15 220.92 432.04 216.49 431.07 221.95C431.02 225.3 431.05 228.68 431 232.04C431.04 233.82 431.12 237.37 431.15 239.15L431.08 239.95L430.34 239.92C430.31 236.68 428.37 238.97 427.27 240.26C405.52 281.23 366.39 312.46 321.56 324.43C270.74 338.62 213.75 328.38 171.65 296.38C131.86 268.02 106.26 221.64 101.72 173.15C95.51 119.35 119.2 64.77 158.35 28.37C168.04 18.98 180.13 12.5 189.89 3.33001C191.34 3.32001 192.82 3.07001 194.02 2.21001Z" fill="#401C00"/>
<path d="M231.08 2.54006C232.73 2.32006 234.37 2.06006 236.02 1.81006L236.85 2.05006C239.27 3.85006 241.67 4.04006 244.06 2.65006C244.76 2.79006 246.16 3.07006 246.85 3.21006C248.44 3.36006 251.61 3.65006 253.2 3.79006L253.9 4.19006C254.96 5.02006 256.17 5.37006 257.53 5.23006C258.35 7.86006 254.55 9.25006 252.41 8.38006C204.14 14.4301 160.84 47.3901 139.93 90.9501C117.87 133.64 118.7 187.47 142.9 229.14C164.31 269.01 205.13 298.33 249.98 305.14C292.13 312.73 336.8 300.88 369.98 274C398.11 250.23 419.32 216.43 423.42 179.34C423.92 176.93 425.56 171.55 427.75 175.78C427.7 177.02 428.06 178.13 428.83 179.11C428.93 179.81 429.13 181.2 429.23 181.89C428.62 183.62 428.46 185.66 429.76 187.14C429.88 187.57 430.12 188.43 430.24 188.86C429.62 190.58 429.42 192.66 430.81 194.08C430.94 194.73 431.19 196.03 431.32 196.68C431.19 197.15 430.94 198.11 430.81 198.58C427.8 200.24 426.7 203.59 425.63 206.63C421.67 220.11 416.08 233.19 407.39 244.35C381.78 286.14 334.86 312.55 286.43 316.52C243.63 318.59 200.13 303.46 168.1 274.89C128.98 240.5 107.78 185.27 117.58 133.66C124.61 82.7601 158.68 37.4801 204 14.0101C212.78 9.58006 222.65 7.69006 231.08 2.54006Z" fill="#502300"/>
<path d="M236.85 2.04996C239.19 1.05996 241.59 1.25996 244.06 2.64996C241.67 4.03996 239.27 3.84996 236.85 2.04996Z" fill="#8E735E"/>
<path d="M181.88 3.84002C182.94 2.56002 184.68 2.61002 186.11 3.13002C185.09 4.48002 183.3 4.38002 181.88 3.84002Z" fill="#877768"/>
<path d="M186.11 3.13002C186.86 3.08002 188.36 2.96002 189.11 2.90002L189.89 3.33002C180.13 12.5 168.04 18.98 158.35 28.37C119.2 64.77 95.51 119.35 101.72 173.15C106.26 221.64 131.86 268.02 171.65 296.38C213.75 328.38 270.74 338.62 321.56 324.43C366.39 312.46 405.52 281.23 427.27 240.26C428.37 238.97 430.31 236.68 430.34 239.92C429.82 241.27 429.77 242.66 430.2 244.08C430.11 244.78 429.93 246.18 429.84 246.88C428.54 247.93 428.6 249.68 429.15 251.11C429.07 251.81 428.93 253.19 428.86 253.88C427.47 254.89 427.63 256.72 428.24 258.12C427.94 259.16 427.64 260.21 427.35 261.25C427.23 259.4 427.3 255.15 424.74 257.78C417.39 271.03 405.65 280.55 395.69 291.66C361.42 323.12 314.09 340.1 267.62 337.51C182.67 335.54 104.2 265.47 95.7 180.32C86.36 116.2 116.25 49.25 168.21 11.22C170.38 10.3 170.92 6.38002 167.84 6.57002C168.36 6.38002 169.4 6.00002 169.92 5.81002C171.29 6.36002 173.29 6.55002 174 4.90002C175.71 5.42002 177.69 5.50002 179.1 4.22002C179.8 4.12002 181.19 3.93002 181.88 3.84002C183.3 4.38002 185.09 4.48002 186.11 3.13002Z" fill="#381900"/>
<path d="M246.85 3.20996C248.44 3.35996 251.61 3.64996 253.2 3.78996C251.61 3.64996 248.44 3.35996 246.85 3.20996Z" fill="#B19F8F"/>
<path d="M174 4.90005C175.31 3.42005 177.4 3.62005 179.1 4.22005C177.69 5.50005 175.71 5.42005 174 4.90005Z" fill="#AFA398"/>
<path d="M253.9 4.18996C255.29 3.66996 257.02 3.48996 258.1 4.74996L257.53 5.22996C256.17 5.36996 254.96 5.01996 253.9 4.18996Z" fill="#B4A091"/>
<path d="M169.92 5.80998C170.97 4.65998 172.56 4.53998 174 4.89998C173.29 6.54998 171.29 6.35998 169.92 5.80998Z" fill="#9B8F83"/>
<path d="M257.53 5.23L258.1 4.75C266.59 7.57 275.67 8.44 283.97 11.91C285.35 13.32 286.95 14.68 287.28 16.75C269.18 12.61 250.83 19.37 232.98 22.04C202.62 33.91 173.41 52.52 155.99 80.99C135.51 114.2 127.57 156.6 139.76 194.27C149.81 233.91 178.69 269.24 216.83 285.25C248.14 300.36 285.24 301.89 318.18 291.27C329.76 285.62 342.36 281.85 353.02 274.06C365.23 268.99 372.31 257.34 382.05 249.03C405.31 223.15 415.9 187.88 416.59 153.57C417.44 149.72 413.22 142.37 418.13 140.5C422.59 151.66 425.4 163.37 428.19 175.04L427.75 175.78C425.56 171.55 423.92 176.93 423.42 179.34C419.32 216.43 398.11 250.23 369.98 274C336.8 300.88 292.13 312.73 249.98 305.14C205.13 298.33 164.31 269.01 142.9 229.14C118.7 187.47 117.87 133.64 139.93 90.95C160.84 47.39 204.14 14.43 252.41 8.38C254.55 9.25 258.35 7.86 257.53 5.23Z" fill="#582800"/>
<path d="M149.94 11.49C155.76 9.35003 161.81 7.98003 167.84 6.57003C170.92 6.38003 170.38 10.3 168.21 11.22C116.25 49.25 86.36 116.2 95.7 180.32C104.2 265.47 182.67 335.54 267.62 337.51C314.09 340.1 361.42 323.12 395.69 291.66C405.65 280.55 417.39 271.03 424.74 257.78C427.3 255.15 427.23 259.4 427.35 261.25C425.87 267.51 424.42 273.78 422.54 279.93C416.29 279.38 414.67 286.5 410.79 289.79C390.97 308.97 368.32 325.83 342.1 335.09C294.95 352.99 240.68 350.68 195.27 328.79C158.1 312.28 127.88 282.47 107.28 247.72C96.93 228.36 90.69 207.08 86.52 185.58C77.12 122.65 102.25 55.92 150.09 14.1C151.11 13.3 151.06 12.43 149.94 11.49Z" fill="#301600"/>
<path d="M121.82 22.59C130.86 18.12 140.39 14.68 149.94 11.49C151.06 12.43 151.11 13.3 150.09 14.1C102.25 55.92 77.12 122.65 86.52 185.58C90.69 207.08 96.93 228.36 107.28 247.72C127.88 282.47 158.1 312.28 195.27 328.79C240.68 350.68 294.95 352.99 342.1 335.09C368.32 325.83 390.97 308.97 410.79 289.79C414.67 286.5 416.29 279.38 422.54 279.93C419.11 290.25 415.49 300.58 410.39 310.21C409.6 307.57 406.65 305.32 404.74 308.74C392.64 321.45 376.54 328.64 361.92 337.83C338.51 350.72 311.6 354.37 285.44 357.5C231.15 358.53 175.93 339.29 136.91 301.09C126.65 295.49 122.99 283.87 114.47 276.52C89 243.13 72.98 201.46 74.93 159C73.93 114.35 90.01 69.51 117.59 34.6C119.66 31.88 127.84 24.93 121.82 22.59Z" fill="#291301"/>
<path d="M283.97 11.91C302.24 17.65 319.47 26.5 335.52 36.88C331.12 41.49 324.82 35.87 320.32 34.57C277.17 19.33 225.69 27.67 190.83 57.82C179.12 64.06 173.39 76.36 164.69 85.72C156.8 99.42 148.68 113.65 147.74 129.86C135.84 183.76 161.42 243.01 209.21 270.76C223.8 279.01 240.35 282.86 256.59 286.4C284.85 290.24 312.85 282.49 338.55 271.38C351.25 261.98 365.56 254.01 375.04 241.06C403.97 210.31 410.23 163.49 400.34 123.65C397.52 110.97 391.48 99.45 385.92 87.86C388.96 89.93 390.44 93.95 394.16 95C404.42 108.74 411.83 124.58 418.13 140.5C413.22 142.37 417.44 149.72 416.59 153.57C415.9 187.88 405.31 223.15 382.05 249.03C372.31 257.34 365.23 268.99 353.02 274.06C342.36 281.85 329.76 285.62 318.18 291.27C285.24 301.89 248.14 300.36 216.83 285.25C178.69 269.24 149.81 233.91 139.76 194.27C127.57 156.6 135.51 114.2 155.99 80.99C173.41 52.52 202.62 33.91 232.98 22.04C250.83 19.37 269.18 12.61 287.28 16.75C286.95 14.68 285.35 13.32 283.97 11.91Z" fill="#5F2B01"/>
<path d="M79.78 49.85C92.56 39.06 106.86 30.05 121.82 22.59C127.84 24.93 119.66 31.88 117.59 34.6C90.01 69.51 73.93 114.35 74.93 159C72.98 201.46 89 243.13 114.47 276.52C122.99 283.87 126.65 295.49 136.91 301.09C175.93 339.29 231.15 358.53 285.44 357.5C311.6 354.37 338.51 350.72 361.92 337.83C376.54 328.64 392.64 321.45 404.74 308.74C406.65 305.32 409.6 307.57 410.39 310.21C403.04 325.6 394.12 340.32 383.01 353.29C381.74 350.66 384.23 348.54 385.14 346.24C372.14 347.38 362.16 357.38 349.65 359.69C347.63 360.1 346.45 361.84 345.4 363.44C329.16 364.52 313.87 372.17 297.33 372.44C277.06 372.64 256.32 375.19 236.36 370.54C228.4 367.16 219.4 367.95 211.4 364.61C191.06 356.82 170.74 348.51 152.94 336.12C139.24 326.64 125.46 317.05 115.47 303.53C102.63 294.48 98.64 278.36 87.11 267.99C85.03 257.05 75.56 248.68 74.22 237.66C68.78 225.84 67.2 212.58 61.39 201C61.83 196.45 62.45 191.82 60.3 187.55C53.4 143.79 62.09 99.3 80.75 59.62C83.04 55.66 87.76 52.83 88.13 47.98C85.47 49.15 82.75 50.23 79.78 49.85Z" fill="#210F01"/>
<path d="M190.83 57.82C225.69 27.67 277.17 19.33 320.32 34.57C324.82 35.87 331.12 41.49 335.52 36.88C358.52 52.23 379.04 71.77 394.16 95C390.44 93.95 388.96 89.93 385.92 87.86C391.48 99.45 397.52 110.97 400.34 123.65C410.23 163.49 403.97 210.31 375.04 241.06C365.56 254.01 351.25 261.98 338.55 271.38C312.85 282.49 284.85 290.24 256.59 286.4C240.35 282.86 223.8 279.01 209.21 270.76C161.42 243.01 135.84 183.76 147.74 129.86C148.68 113.65 156.8 99.42 164.69 85.72C173.39 76.36 179.12 64.06 190.83 57.82ZM272.42 38.56C262.29 40.31 251.47 38.54 241.84 41.85C238.74 48.54 228.18 43.14 224.57 49.61C222.58 54.3 215.85 50.12 213.57 54.61C210.8 60.01 203.83 59.57 200.65 64.59C195.97 64.98 191.54 68.45 191.63 73.54C185.79 76.97 180.52 81.74 178.58 88.64C172.67 91 172.82 98.21 168.38 102.3C169.14 105.96 166.71 109.21 165.72 112.68C161.48 113.91 164.72 119.51 160.99 120.98C157.11 122.32 160.43 126.69 159.46 129.61C155.75 134.32 160.64 141.95 155.03 145.15C156.89 152.57 154.48 159.95 155.43 167.39C160.56 171.38 154.67 179.03 159.93 183.06C156.65 189.94 166.29 195.11 164.08 202.03C163.15 204.97 167.24 204.74 168.86 206.13C166.56 210.24 172.99 212.18 171.45 216.33C171.45 221.79 177.79 224.52 180.29 228.69C181.11 233.36 185.83 235.13 188.64 238.4C195.57 244.12 200.63 252.79 209.74 255.27C212.29 263.74 224.32 258.93 226.15 267.96C231.7 262.21 235.85 273.69 242.6 272.49C259.57 276.95 276.85 277.41 294.2 275.18C299.65 272.77 305.33 269.99 311.49 271.63C313.17 268.51 316.36 266.57 319.96 266.89C326.63 268.7 329.16 258.49 335.72 260.66C340.94 254.98 350.11 253.42 353.23 246.27C360.7 247.88 355.19 235.81 363.77 238.65C366.83 235.35 369.37 231.7 372.49 228.44C375.68 226.09 370.93 221.5 375.69 220.67C381.59 217.76 377.01 208.97 382.92 205.95C385.95 201.39 386.19 195.18 389.85 190.87C388.48 186 391.16 181.3 392.72 176.84C394.71 167.67 394.08 158.26 393.11 149.03C391.63 147.17 395.73 142.51 392.29 141.46C392.08 135.04 394.64 126.23 388.37 121.63C386.35 108.99 377.49 99.43 372.1 88.84C371.43 85.28 369.79 82.89 366.3 81.76C367.66 73.61 354.43 77.33 357.88 69.13C348.87 66.58 343.26 57.84 334.33 55.52C330.73 50.49 323.03 52.15 321.82 45.19C305.47 43.27 289.16 37.27 272.42 38.56Z" fill="#642D00"/>
<path d="M272.42 38.56C289.16 37.27 305.47 43.27 321.82 45.19C323.03 52.15 330.73 50.49 334.33 55.52C343.26 57.84 348.87 66.58 357.88 69.13C354.43 77.33 367.66 73.61 366.3 81.76C369.79 82.89 371.43 85.28 372.1 88.84C377.49 99.43 386.35 108.99 388.37 121.63C394.64 126.23 392.08 135.04 392.29 141.46C395.73 142.51 391.63 147.17 393.11 149.03C394.08 158.26 394.71 167.67 392.72 176.84C391.16 181.3 388.48 186 389.85 190.87C386.19 195.18 385.95 201.39 382.92 205.95C377.01 208.97 381.59 217.76 375.69 220.67C370.93 221.5 375.68 226.09 372.49 228.44C369.37 231.7 366.83 235.35 363.77 238.65C355.19 235.81 360.7 247.88 353.23 246.27C350.11 253.42 340.94 254.98 335.72 260.66C329.16 258.49 326.63 268.7 319.96 266.89C316.36 266.57 313.17 268.51 311.49 271.63C305.33 269.99 299.65 272.77 294.2 275.18C276.85 277.41 259.57 276.95 242.6 272.49C235.85 273.69 231.7 262.21 226.15 267.96C224.32 258.93 212.29 263.74 209.74 255.27C200.63 252.79 195.57 244.12 188.64 238.4C185.83 235.13 181.11 233.36 180.29 228.69C177.79 224.52 171.45 221.79 171.45 216.33C172.99 212.18 166.56 210.24 168.86 206.13C167.24 204.74 163.15 204.97 164.08 202.03C166.29 195.11 156.65 189.94 159.93 183.06C154.67 179.03 160.56 171.38 155.43 167.39C154.48 159.95 156.89 152.57 155.03 145.15C160.64 141.95 155.75 134.32 159.46 129.61C160.43 126.69 157.11 122.32 160.99 120.98C164.72 119.51 161.48 113.91 165.72 112.68C166.71 109.21 169.14 105.96 168.38 102.3C172.82 98.21 172.67 91 178.58 88.64C180.52 81.74 185.79 76.97 191.63 73.54C191.54 68.45 195.97 64.98 200.65 64.59C203.83 59.57 210.8 60.01 213.57 54.61C215.85 50.12 222.58 54.3 224.57 49.61C228.18 43.14 238.74 48.54 241.84 41.85C251.47 38.54 262.29 40.31 272.42 38.56Z" fill="#682E00"/>
<path d="M79.78 49.85C82.75 50.23 85.47 49.15 88.13 47.98C87.76 52.83 83.04 55.66 80.75 59.62C62.09 99.3 53.4 143.79 60.3 187.55C62.45 191.82 61.83 196.45 61.39 201C67.2 212.58 68.78 225.84 74.22 237.66C75.56 248.68 85.03 257.05 87.11 267.99C98.64 278.36 102.63 294.48 115.47 303.53C125.46 317.05 139.24 326.64 152.94 336.12C170.74 348.51 191.06 356.82 211.4 364.61C219.4 367.95 228.4 367.16 236.36 370.54C256.32 375.19 277.06 372.64 297.33 372.44C313.87 372.17 329.16 364.52 345.4 363.44C346.45 361.84 347.63 360.1 349.65 359.69C362.16 357.38 372.14 347.38 385.14 346.24C384.23 348.54 381.74 350.66 383.01 353.29C352.44 390.51 309.15 416.95 262.09 427.21C260.71 426.62 258.7 426.44 258.01 428.1C256.28 427.57 254.3 427.51 252.86 428.77C252.43 428.89 251.57 429.12 251.14 429.24C249.4 428.62 247.37 428.46 245.89 429.75C245.46 429.86 244.61 430.08 244.18 430.19C242.61 430.36 239.48 430.71 237.91 430.89C237.5 430.99 236.69 431.19 236.28 431.3C233.51 431.14 230.73 431.05 227.97 431C223.86 430.84 219.78 431.19 215.72 431.72C212.9 431.88 210.05 431.81 207.24 431.85C203.76 431.28 200.29 431 196.78 431.11C196.35 431.06 195.51 430.96 195.09 430.9C193.53 430.72 190.43 430.34 188.87 430.16C187.61 430.05 186.36 429.95 185.1 429.85C184.06 428.52 182.27 428.6 180.84 429.14L180.14 428.78C178.68 427.43 176.61 427.62 174.89 428.28C151.61 422.96 128.61 415.33 108.1 402.87C56.42 373.74 18.89 321.76 5.81002 264.09C6.38002 262.71 6.55002 260.7 4.89002 260.01C5.42002 258.27 5.49002 256.27 4.18002 254.85L3.82002 254.14C4.38002 252.41 4.59002 250.26 3.00002 249C3.40002 247.24 3.48002 245.2 2.05002 243.87L1.73002 243.1C2.39002 241.13 2.70002 238.95 1.81002 237C1.74002 234.21 1.80002 231.45 1.37002 228.71C0.850021 219.8 0.980021 210.89 0.980021 201.98C1.02002 201.28 1.10002 199.9 1.14002 199.21C1.44002 196.43 1.73002 193.69 1.97002 190.93C2.19002 189.39 2.63002 186.33 2.85002 184.8L3.23002 184.11C4.56002 182.65 4.36002 180.6 3.76002 178.87C3.86002 178.44 4.05002 177.57 4.14002 177.14C5.39002 176.11 5.44002 174.43 4.99002 173C6.56002 172.19 6.36002 170.25 5.77002 168.88C16.59 122.6 42.34 79.41 79.78 49.85Z" fill="#1B0C01"/>
<path d="M4.98998 173C4.54998 171.58 4.62998 169.96 5.76998 168.88C6.35998 170.25 6.55998 172.19 4.98998 173Z" fill="#7E7670"/>
<path d="M4.14 177.14C3.62 175.73 3.49999 173.87 4.99 173C5.44 174.43 5.39 176.11 4.14 177.14Z" fill="#97918A"/>
<path d="M428.19 175.04C429.69 175.89 429.32 177.77 428.83 179.11C428.06 178.13 427.7 177.02 427.75 175.78L428.19 175.04Z" fill="#B5A395"/>
<path d="M3.23002 184.11C2.62002 182.38 2.47002 180.34 3.76002 178.87C4.36002 180.6 4.56002 182.65 3.23002 184.11Z" fill="#7F7772"/>
<path d="M429.23 181.89C430.54 183.36 430.36 185.41 429.76 187.14C428.46 185.66 428.62 183.62 429.23 181.89Z" fill="#947964"/>
<path d="M1.96997 190.93C2.18997 189.39 2.62997 186.33 2.84997 184.8C2.62997 186.33 2.18997 189.39 1.96997 190.93Z" fill="#847D77"/>
<path d="M430.24 188.86C431.52 190.33 431.35 192.34 430.81 194.08C429.42 192.66 429.62 190.58 430.24 188.86Z" fill="#9A8370"/>
<path d="M1.14001 199.21C1.24001 196.43 1.63001 193.66 1.97001 190.93C1.73001 193.69 1.44001 196.43 1.14001 199.21Z" fill="#9F9993"/>
<path d="M431.32 196.68C432.14 200.82 431.71 205.08 431.74 209.28C430.74 205.81 430.84 202.15 430.81 198.58C430.94 198.11 431.19 197.15 431.32 196.68Z" fill="#947D6A"/>
<path d="M0 202.05L0.98 201.98C0.98 210.89 0.85 219.8 1.37 228.71C1.29 229.24 1.14 230.31 1.07 230.84L0 231.14V202.05Z" fill="#ACA6A1"/>
<path d="M431.07 221.95L432.03 222.01C432.05 225.36 431.87 228.68 431.83 232.04H431C431.05 228.68 431.02 225.3 431.07 221.95Z" fill="#755D49"/>
<path d="M1.37 228.71C1.8 231.45 1.74 234.21 1.81 237L1 237.05C1.02 234.98 1.02 232.91 1.07 230.84C1.14 230.31 1.29 229.24 1.37 228.71Z" fill="#60564F"/>
<path d="M431 232.04H431.83C432.93 234.33 432.71 236.7 431.15 239.15C431.12 237.37 431.04 233.82 431 232.04Z" fill="#C3B9B2"/>
<path d="M1 237.05L1.81 237C2.7 238.95 2.39 241.13 1.73 243.1C1.55 241.59 1.18 238.56 1 237.05Z" fill="#BEB8B4"/>
<path d="M430.34 239.92L431.08 239.95C431.45 241.39 431.22 242.96 430.2 244.08C429.77 242.66 429.82 241.27 430.34 239.92Z" fill="#958579"/>
<path d="M2.05 243.87C3.48 245.2 3.4 247.24 3 249C1.46 247.72 1.63 245.62 2.05 243.87Z" fill="#A49E9A"/>
<path d="M429.15 251.11C428.6 249.68 428.54 247.93 429.84 246.88C430.38 248.3 430.46 250.07 429.15 251.11Z" fill="#8F7F71"/>
<path d="M2.99997 249C4.58997 250.26 4.37997 252.41 3.81997 254.14C2.54997 252.71 2.59997 250.74 2.99997 249Z" fill="#7D746D"/>
<path d="M428.24 258.12C427.63 256.72 427.47 254.89 428.86 253.88C429.4 255.3 429.41 257 428.24 258.12Z" fill="#A69A8F"/>
<path d="M4.18 254.85C5.49 256.27 5.41999 258.27 4.88999 260.01C3.43999 258.65 3.61999 256.57 4.18 254.85Z" fill="#8C847E"/>
<path d="M4.88998 260.01C6.54998 260.7 6.37998 262.71 5.80998 264.09C4.66998 263.02 4.54998 261.43 4.88998 260.01Z" fill="#7A716A"/>
<path d="M258.01 428.1C258.7 426.44 260.71 426.62 262.09 427.21C261.02 428.32 259.43 428.44 258.01 428.1Z" fill="#827A74"/>
<path d="M174.89 428.28C176.61 427.62 178.68 427.43 180.14 428.78C178.4 429.37 176.39 429.51 174.89 428.28Z" fill="#8B837E"/>
<path d="M252.86 428.77C254.3 427.51 256.28 427.57 258.01 428.1C256.67 429.58 254.57 429.36 252.86 428.77Z" fill="#97918D"/>
<path d="M180.84 429.14C182.27 428.6 184.06 428.52 185.1 429.85C183.66 430.39 181.91 430.41 180.84 429.14Z" fill="#9C948F"/>
<path d="M245.89 429.75C247.37 428.46 249.4 428.62 251.14 429.24C249.66 430.53 247.62 430.37 245.89 429.75Z" fill="#7C746D"/>
<path d="M188.87 430.16C190.43 430.34 193.53 430.72 195.09 430.9C193.53 430.72 190.43 430.34 188.87 430.16Z" fill="#746B63"/>
<path d="M237.91 430.89C239.48 430.71 242.61 430.36 244.18 430.19C242.61 430.36 239.48 430.71 237.91 430.89Z" fill="#7F766F"/>
<path d="M196.78 431.11C200.29 431 203.76 431.28 207.24 431.85C203.73 432.07 200.22 431.74 196.78 431.11Z" fill="#877F79"/>
<path d="M215.72 431.72C219.78 431.19 223.86 430.84 227.97 431L228.03 432.02C223.92 431.96 219.82 431.86 215.72 431.72Z" fill="#493D34"/>
<path d="M227.97 431C230.73 431.05 233.51 431.14 236.28 431.3C233.62 432.12 230.78 431.95 228.03 432.02L227.97 431Z" fill="#968F8A"/>
</svg>
