<svg width="308" height="325" viewBox="0 0 308 325" fill="none" xmlns="http://www.w3.org/2000/svg">
<path d="M101.81 91.3201C170.44 60.9501 239.22 30.8901 307.75 0.310059C307.79 2.90006 306.85 5.30006 305.94 7.68006C279.27 83.8701 252.91 160.17 226.23 236.36C221.55 233.27 218.13 228.72 213.82 225.18C207.93 220.15 202.78 214.3 196.83 209.36C190.29 214.62 185.28 221.61 178.72 226.9C175.59 229.34 172.9 232.29 170.1 235.1C153.15 253.13 135.45 270.45 118.01 288.03C107.42 299.4 96.32 310.28 85.49 321.43C83.8 322.88 81.43 325.93 79.17 323.62C54.3 301.86 29.25 280.29 4.29 258.62C2.89 257.09 -0.320001 256.1 0.669999 253.53C2.94 249.63 6.66 246.95 9.76 243.77C30.14 222.48 51.29 201.95 71.89 180.89C80.76 171.44 89.94 162.29 99.03 153.06C101.07 151.03 102.38 148.43 104.24 146.24C107.39 142.32 111.39 139.18 114.63 135.32C114.79 134.22 115.19 132.71 114.18 131.88C109.35 127.36 104.71 122.64 99.78 118.22C93.3 112.61 87.52 106.25 80.9 100.8C87.62 97.1301 94.88 94.5601 101.81 91.3201Z" fill="white" stroke="black" stroke-width="20" />
</svg>
