<svg width="343" height="129" viewBox="0 0 343 129" fill="none" xmlns="http://www.w3.org/2000/svg">
<path d="M337.3 122.3L337 121.3C332.4 108.5 327.9 95.7001 323.5 82.8001L302.5 19.7001L281.1 41.9001C263.3 26.3001 245.6 18.3001 221.8 10.9001C217.2 9.50009 212.6 8.2001 208 7.2001C207.9 7.2001 207.8 7.1001 207.6 7.1001C196.7 4.7001 185.6 3.4001 174.4 3.1001C174.1 3.1001 173.8 3.1001 173.4 3.1001C172.7 3.1001 172 3.1001 171.2 3.1001C170.5 3.1001 169.8 3.1001 169 3.1001C168.7 3.1001 168.4 3.1001 168 3.1001C156.8 3.3001 145.7 4.6001 134.8 7.1001C134.7 7.1001 134.6 7.2001 134.4 7.2001C129.9 8.2001 125.5 9.4001 121.1 10.7001C118.7 11.4001 116.4 12.2001 114 13.0001C93.3001 19.9001 77.2001 27.8001 61.0001 42.1001L60.9001 42.0001C54.0001 35.1001 47.1001 28.3001 40.3001 21.3001C28.4001 54.5001 17.3001 88.1001 5.40009 121.3L5.1001 122.3C7.7001 121.2 10.7001 120.5 13.4001 119.6C39.6001 109.8 75.7001 98.8001 106.7 87.7001C99.4001 80.6001 92.4001 73.3001 85.0001 66.2001L95.4001 58.5001C96.9001 57.5001 98.3001 56.5001 99.6001 55.7001C113.6 47.1001 128.6 41.2001 144.1 38.0001C153 36.3001 162.3 35.4001 171.1 35.3001C182.4 35.5001 194.7 36.9001 205.7 39.7001C216.4 42.5001 226.9 46.7001 236.9 52.2001C239.7 53.9001 243 56.0001 246.8 58.6001L257.2 66.3001L233.6 88.5001L336.6 122.8L336.4 122.1C336.8 122.1 337.1 122.2 337.3 122.3Z" fill="white" stroke="#010101" stroke-width="6" stroke-miterlimit="10"/>
</svg>
