<svg width="345" height="133" viewBox="0 0 345 133" fill="none" xmlns="http://www.w3.org/2000/svg">
<path d="M76.5 68.2C68.7001 74.5 64.5 78.9 57.4001 87C52.7001 93.6 49.1001 98.1 44.9001 103.6C35.8001 98.2 25 91.8 15.8 86.6C50 38.9 72.7 25.2 112.1 12.9C133.1 6.30003 155.4 3.80003 177.3 5.80003C210.8 8.70003 243.4 21.9 269.4 43.4C271.5 45 271.1 45.6 272.8 44C279.7 37.1 286.6 30.3 293.4 23.3C305.3 56.5 316.4 90.1 328.3 123.3L328.6 124.3C326 123.2 323 122.5 320.3 121.6C294.1 111.8 258 100.8 227 89.7C234.3 82.6 241.4 75.2 248.8 68.1C246.7 65.8 244.8 64.4 241.6 62.2C238.1 59.8 235.4 58.1 231.7 55.8C218 47.7 210.5 44 187.2 39.4C171 35.5 143.1 36.8 122.2 43.2C109.8 47.4 104.9 48.3 86.9 60.5" fill="#A352F9"/>
<path d="M225.1 90.4L249 67.9C185 16.6 93 30.2 44.7 103.2L16 86.2C81.3 -13.1 203.7 -12.8 271.3 45.1L293.8 21.7L328.1 124.7L225.1 90.4Z" stroke="black" stroke-width="10" stroke-miterlimit="10"/>
</svg>
