<?xml version="1.0" encoding="UTF-8" standalone="no"?>
<svg
   xmlns:dc="http://purl.org/dc/elements/1.1/"
   xmlns:cc="http://creativecommons.org/ns#"
   xmlns:rdf="http://www.w3.org/1999/02/22-rdf-syntax-ns#"
   xmlns:svg="http://www.w3.org/2000/svg"
   xmlns="http://www.w3.org/2000/svg"
   xmlns:sodipodi="http://sodipodi.sourceforge.net/DTD/sodipodi-0.dtd"
   xmlns:inkscape="http://www.inkscape.org/namespaces/inkscape"
   viewBox="0 -256 1792 1792"
   id="svg4339"
   version="1.1"
   inkscape:version="0.48.3.1 r9886"
   width="100%"
   height="100%"
   sodipodi:docname="table_font_awesome.svg">
  <metadata
     id="metadata4349">
    <rdf:RDF>
      <cc:Work
         rdf:about="">
        <dc:format>image/svg+xml</dc:format>
        <dc:type
           rdf:resource="http://purl.org/dc/dcmitype/StillImage" />
      </cc:Work>
    </rdf:RDF>
  </metadata>
  <defs
     id="defs4347" />
  <sodipodi:namedview
     pagecolor="#ffffff"
     bordercolor="#666666"
     borderopacity="1"
     objecttolerance="10"
     gridtolerance="10"
     guidetolerance="10"
     inkscape:pageopacity="0"
     inkscape:pageshadow="2"
     inkscape:window-width="640"
     inkscape:window-height="480"
     id="namedview4345"
     showgrid="false"
     inkscape:zoom="0.13169643"
     inkscape:cx="896"
     inkscape:cy="896"
     inkscape:window-x="0"
     inkscape:window-y="25"
     inkscape:window-maximized="0"
     inkscape:current-layer="svg4339" />
  <g
     transform="matrix(1,0,0,-1,75.932203,1368.9492)"
     id="g4341">
    <path
       d="m 512,160 v 192 q 0,14 -9,23 -9,9 -23,9 H 160 q -14,0 -23,-9 -9,-9 -9,-23 V 160 q 0,-14 9,-23 9,-9 23,-9 h 320 q 14,0 23,9 9,9 9,23 z m 0,384 v 192 q 0,14 -9,23 -9,9 -23,9 H 160 q -14,0 -23,-9 -9,-9 -9,-23 V 544 q 0,-14 9,-23 9,-9 23,-9 h 320 q 14,0 23,9 9,9 9,23 z m 512,-384 v 192 q 0,14 -9,23 -9,9 -23,9 H 672 q -14,0 -23,-9 -9,-9 -9,-23 V 160 q 0,-14 9,-23 9,-9 23,-9 h 320 q 14,0 23,9 9,9 9,23 z M 512,928 v 192 q 0,14 -9,23 -9,9 -23,9 H 160 q -14,0 -23,-9 -9,-9 -9,-23 V 928 q 0,-14 9,-23 9,-9 23,-9 h 320 q 14,0 23,9 9,9 9,23 z m 512,-384 v 192 q 0,14 -9,23 -9,9 -23,9 H 672 q -14,0 -23,-9 -9,-9 -9,-23 V 544 q 0,-14 9,-23 9,-9 23,-9 h 320 q 14,0 23,9 9,9 9,23 z m 512,-384 v 192 q 0,14 -9,23 -9,9 -23,9 h -320 q -14,0 -23,-9 -9,-9 -9,-23 V 160 q 0,-14 9,-23 9,-9 23,-9 h 320 q 14,0 23,9 9,9 9,23 z m -512,768 v 192 q 0,14 -9,23 -9,9 -23,9 H 672 q -14,0 -23,-9 -9,-9 -9,-23 V 928 q 0,-14 9,-23 9,-9 23,-9 h 320 q 14,0 23,9 9,9 9,23 z m 512,-384 v 192 q 0,14 -9,23 -9,9 -23,9 h -320 q -14,0 -23,-9 -9,-9 -9,-23 V 544 q 0,-14 9,-23 9,-9 23,-9 h 320 q 14,0 23,9 9,9 9,23 z m 0,384 v 192 q 0,14 -9,23 -9,9 -23,9 h -320 q -14,0 -23,-9 -9,-9 -9,-23 V 928 q 0,-14 9,-23 9,-9 23,-9 h 320 q 14,0 23,9 9,9 9,23 z m 128,320 V 160 Q 1664,94 1617,47 1570,0 1504,0 H 160 Q 94,0 47,47 0,94 0,160 v 1088 q 0,66 47,113 47,47 113,47 h 1344 q 66,0 113,-47 47,-47 47,-113 z"
       id="path4343"
       inkscape:connector-curvature="0"
       style="fill:currentColor" />
  </g>
</svg>
