<svg width="530" height="638" viewBox="0 0 530 638" fill="none" xmlns="http://www.w3.org/2000/svg">
<path d="M523.531 338.424V338.904C521.731 364.846 510.331 388.385 492.531 403.157L463.031 427.657C356.531 249.311 268.031 240.303 211.831 258.798C233.831 107.714 307.431 -2.41604 386.631 5.39038C474.131 13.7973 535.431 162.96 523.531 338.424Z" fill="url(#paint0_linear)" stroke="black" stroke-width="12" stroke-miterlimit="10" stroke-linejoin="round"/>
<path d="M463.031 427.657L267.931 591.232L218.631 632.545C215.631 599.158 208.531 562.768 197.331 525.778C160.631 404.118 92.931 322.09 46.131 342.507L211.731 258.798C268.031 240.303 356.531 249.311 463.031 427.657Z" fill="url(#paint1_linear)" stroke="black" stroke-width="12" stroke-miterlimit="10" stroke-linejoin="round"/>
<path d="M218.631 632.425L8.33099 507.523C-1.86901 424.535 11.531 357.64 46.131 342.507C92.931 322.09 160.531 404.118 197.331 525.658C208.531 562.648 215.531 599.158 218.631 632.425Z" fill="#636363" stroke="black" stroke-width="12" stroke-miterlimit="10" stroke-linejoin="round"/>
<defs>
<linearGradient id="paint0_linear" x1="456.884" y1="87.9488" x2="299.236" y2="322.864" gradientUnits="userSpaceOnUse">
<stop stop-color="white"/>
<stop offset="1"/>
</linearGradient>
<linearGradient id="paint1_linear" x1="210.612" y1="319.189" x2="431.861" y2="567.504" gradientUnits="userSpaceOnUse">
<stop stop-color="white"/>
<stop offset="1"/>
</linearGradient>
</defs>
</svg>
