<svg width="536" height="328" viewBox="0 0 536 328" fill="none" xmlns="http://www.w3.org/2000/svg">
<path d="M529 116.813L509.469 194.235L399.134 321.5H136.866L26.5306 194.235L7 116.813L148.28 6.5H387.974L529 116.813Z" fill="white" stroke="black" stroke-width="12" stroke-miterlimit="10"/>
<path d="M525.368 116.488L524.101 121.303L479.247 171.226L477.473 169.705L525.368 116.488Z" fill="black"/>
<path d="M58.3264 169.705L56.5525 171.226L11.4448 121.303L10.4312 116.488L58.3264 169.705Z" fill="black"/>
<path d="M138.152 319.473L136.124 316.938L125.228 247.757L56.5525 171.226L11.4448 121.303L10.4312 116.488L58.3264 169.705L126.748 245.729L127.255 247.757L138.152 319.473Z" fill="#808080"/>
<path d="M409.052 245.729L408.545 247.757H127.256L126.749 245.729H409.052Z" fill="#808080"/>
<path d="M525.368 116.488L524.101 121.303L479.247 171.226L410.572 247.757L399.675 316.938L397.648 319.473L408.545 247.757L409.052 245.729L477.473 169.705L525.368 116.488Z" fill="#848484"/>
<path d="M408.544 247.757L397.647 319.473H138.152L127.255 247.757H408.544Z" fill="#838383"/>
<path d="M410.572 247.757L399.675 316.939L398.915 321.5H136.885L136.125 316.939L125.228 247.757H127.255L138.152 319.473H397.648L408.544 247.757H410.572Z" fill="black"/>
<path d="M387.764 6H148.289L7.13721 116.488L11.4452 121.303L56.2994 171.226L124.975 247.757H410.065L478.993 171.226L523.848 121.303L528.409 116.488L387.764 6ZM477.473 169.705L409.051 245.729H126.748L58.3268 169.959L10.1782 116.742L149.049 8.02736H386.751L525.622 116.742L477.473 169.705Z" fill="black"/>
<path d="M477.473 169.705L409.052 245.729H126.749L58.3271 169.705L157.158 86.839H378.642L477.473 169.705Z" fill="#F2F2F7"/>
<path d="M525.368 116.488L477.473 169.705L378.642 86.8389L386.751 7.52045L525.368 116.488Z" fill="#F2F2F7"/>
<path d="M157.157 86.8389L58.3259 169.705L10.4307 116.488L149.048 7.52045L157.157 86.8389Z" fill="#F2F2F7"/>
<path d="M386.75 7.52045L378.641 86.8389H157.158L149.048 7.52045H386.75Z" fill="#F2F2F7"/>
<path d="M524.102 121.303L506.363 194.033L479.248 171.226L524.102 121.303Z" fill="#A9AAAA"/>
<path d="M506.362 194.033L399.675 316.938L410.572 247.756L479.247 171.226L506.362 194.033Z" fill="#A9AAAA"/>
<path d="M528.663 116.488L509.15 194.033L398.915 321.5L399.675 316.938L506.362 194.033L524.101 121.303L528.663 116.488Z" fill="black"/>
<path d="M136.125 316.938L29.4375 194.033L56.5528 171.226L125.228 247.756L136.125 316.938Z" fill="#636363"/>
<path d="M56.5534 171.226L29.4381 194.033L11.4458 121.303L56.5534 171.226Z" fill="#636363"/>
<path d="M136.885 321.5L26.6501 194.033L7.13721 116.488L11.4452 121.303L29.4376 194.033L136.125 316.938L136.885 321.5Z" fill="black"/>
</svg>
