<svg width="504" height="667" viewBox="0 0 504 667" fill="none" xmlns="http://www.w3.org/2000/svg">
<path d="M184 432.6V663.1L14.6 542.2L3.29999 336L184 432.6Z" fill="#636464" stroke="#010101" stroke-width="12" stroke-miterlimit="10" stroke-linejoin="round"/>
<path d="M184 432.5V432.6L3.29999 336L184 432.5Z" stroke="#010101" stroke-width="12" stroke-miterlimit="10" stroke-linejoin="round"/>
<path d="M500.9 119.8L492.7 424.4L342.4 542L184 663.1V432.6L362.3 335V181.1L440.9 43.9001L500.9 119.8Z" fill="#ABABAB" stroke="#010101" stroke-width="12" stroke-miterlimit="10" stroke-linejoin="round"/>
<path d="M362.3 181.1V335V181.2V181.1Z" stroke="#010101" stroke-width="12" stroke-miterlimit="10" stroke-linejoin="round"/>
<path d="M362.3 181.1V181.2V335L179.2 262.3V123.7L362.3 180.5V181.1Z" fill="#636464" stroke="#010101" stroke-width="12" stroke-miterlimit="10" stroke-linejoin="round"/>
<path d="M362.3 181.1V335V181.2V181.1Z" stroke="#010101" stroke-width="12" stroke-miterlimit="10" stroke-linejoin="round"/>
<path d="M184 432.6V432.5L3.29999 336L179.2 262.3L362.3 335L184 432.6Z" fill="white" stroke="#010101" stroke-width="12" stroke-miterlimit="10" stroke-linejoin="round"/>
<path d="M184 432.5V432.6L3.29999 336L184 432.5Z" stroke="#010101" stroke-width="12" stroke-miterlimit="10" stroke-linejoin="round"/>
<path d="M440.9 43.9L362.3 180.5L179.2 123.7L255.7 3.30005L440.9 43.9Z" fill="white" stroke="#010101" stroke-width="12" stroke-miterlimit="10" stroke-linejoin="round"/>
</svg>
