<svg width="543" height="335" viewBox="0 0 543 335" fill="none" xmlns="http://www.w3.org/2000/svg">
<path d="M411.088 19.189L169.653 8L9 109.386L27.0278 179.488L114.656 311.472L380.509 327L516.288 205.748L535 136.102L411.088 19.189Z" stroke="#010101" stroke-width="14" stroke-miterlimit="10"/>
<path d="M410.168 20.9987L401.269 92.6474L176.739 81.4666L170.578 9.81787L410.168 20.9987Z" fill="black"/>
<path d="M170.578 9.81787L176.739 81.4666L29.7903 180.041L11.9922 109.989L170.578 9.81787Z" fill="black"/>
<path d="M532.244 136.23L513.761 205.825L401.268 92.6475L410.167 20.9988L532.244 136.23Z" fill="black"/>
<path d="M103.721 243.019L116.271 309.876L29.7903 180.041L11.9922 109.989L103.721 243.019Z" fill="#808080"/>
<path d="M102.123 245.072L114.902 311.701L27.2802 179.813L9.25391 109.761L102.123 245.072Z" fill="#636363"/>
<path d="M170.578 9.81787L410.168 20.9987L532.244 136.23L388.947 258.991L103.721 243.019L11.9922 109.989L170.578 9.81787Z" fill="#F2F2F7"/>
<path d="M388.946 258.991L379.819 325.164L116.27 309.876L103.72 243.019L388.946 258.991Z" fill="#808080"/>
<path d="M532.244 136.23L513.761 205.825L379.819 325.164L388.947 258.991L532.244 136.23Z" fill="#828282"/>
<path d="M411.308 19.6298L535.21 136.458L389.859 261.045L102.123 245.072L9.25391 109.761L169.893 8.44897L411.308 19.6298ZM388.947 258.991L532.244 136.23L410.167 20.9989L170.349 9.81807L11.9921 109.989L103.721 243.247L388.947 258.991Z" fill="black"/>
<path d="M535.21 136.458L516.499 206.053L380.731 327.217L390.087 261.045L535.21 136.458Z" fill="#A9AAAA"/>
<path d="M390.088 261.045L380.733 327.217L114.902 311.701L102.124 245.072L390.088 261.045Z" fill="#838383"/>
</svg>
