<svg width="619" height="430" viewBox="0 0 619 430" fill="none" xmlns="http://www.w3.org/2000/svg">
<path d="M612.387 93.5237C602.014 79.4111 585.859 71.0795 569.194 66.6587C549.469 61.0477 528.723 62.2379 508.487 61.3877C477.878 61.2177 447.27 59.6874 416.661 59.5174C402.207 58.8373 387.413 57.1369 374.149 51.3559C346.771 38.9436 319.393 26.5313 292.186 13.9489C263.107 -1.18387 227.227 -1.69397 197.469 11.5685C189.986 14.9691 183.015 19.9 178.763 27.0414C175.192 33.8426 174.512 41.8341 172.642 49.1455C168.39 65.8086 164.989 82.4716 160.738 99.1347C157.507 109.167 148.835 115.968 139.992 120.899C107.513 138.922 75.0338 156.775 42.5546 174.629C31.1614 180.92 19.258 187.381 11.4358 197.923C4.97394 205.745 0.89278 216.116 2.93336 226.318C6.33433 243.322 11.4358 259.815 14.8367 276.648C16.5372 287.19 22.829 296.881 31.5015 303.003C49.3566 316.095 72.143 317.795 93.3991 317.285C124.008 318.645 154.616 318.986 185.225 320.176C204.781 321.196 224.506 319.836 243.722 323.576C253.925 325.787 263.787 329.868 272.63 335.479C311.401 360.643 350.002 386.148 388.943 411.143C416.321 428.826 451.861 432.907 482.64 422.705C499.645 416.754 516.139 405.191 521.921 387.508C525.832 373.396 528.043 358.943 531.443 344.83C533.314 334.798 536.545 324.597 534.674 314.395C530.593 288.72 526.512 263.215 522.091 237.54C546.068 216.797 571.065 197.243 595.382 176.669C599.973 172.588 602.864 166.977 604.224 161.026C608.475 145.043 611.706 128.72 615.958 112.567C618.168 106.276 616.128 99.3048 612.387 93.5237ZM520.73 382.407C517.5 397.37 505.766 409.102 492.332 415.733C471.076 426.786 446.079 427.466 423.123 422.705L423.633 421.174L422.783 422.875C411.219 419.304 399.826 414.883 389.793 408.082C359.355 388.528 329.426 368.465 298.987 349.081C285.384 340.41 272.63 330.208 257.326 324.597C251.374 322.216 245.082 321.536 239.13 319.836C213.453 317.285 187.776 318.135 162.099 316.775C130.3 315.585 98.5005 315.585 66.8715 313.374C47.9962 311.164 27.2503 301.642 20.4483 282.769C17.2174 269.506 14.3266 256.074 10.5855 242.811C22.659 255.224 39.4937 261.175 56.3285 263.555C81.3256 265.766 106.323 265.086 131.32 266.276C166.69 267.636 202.06 267.296 237.26 270.186C252.394 272.397 266.678 279.028 279.432 287.36C316.843 310.654 354.253 333.948 391.834 357.073C403.737 364.724 417.171 369.995 430.945 372.886V373.396C459.173 378.497 490.462 376.116 514.439 359.113C520.39 355.372 524.642 349.591 529.403 344.49C526.002 357.073 523.451 369.825 520.73 382.407ZM601.163 162.386C598.783 171.738 590.28 177.519 583.308 183.47C562.902 200.133 542.837 217.137 522.261 233.46C520.39 223.258 517.84 212.716 519.03 202.344C520.73 195.543 525.492 189.932 530.933 185.681C557.461 164.767 584.159 144.023 610.516 122.939C607.285 136.032 604.734 149.294 601.163 162.386ZM602.694 126.17C579.227 144.703 555.76 163.237 532.124 181.6C525.492 187.211 518.52 193.162 516.309 201.834C513.929 209.825 516.139 217.987 517.5 225.808C522.261 255.224 527.192 284.639 531.954 314.225C533.824 325.107 531.443 336.839 524.642 345.68C513.929 359.963 496.414 366.934 479.579 370.675C450.33 376.286 418.701 371.015 393.534 354.862C360.205 334.288 327.045 313.545 293.886 292.971C283.683 286.68 273.65 280.048 262.937 274.777C248.993 268.146 233.349 266.106 218.044 265.766C167.54 264.235 117.036 263.045 66.5314 261.515C49.0164 260.835 30.8213 256.584 17.2174 245.192C8.37491 237.88 3.61355 225.638 6.84447 214.416C11.0957 198.943 24.6995 188.401 38.3034 181.09C65.3411 166.127 92.3788 151.334 119.246 136.372C130.129 130.251 141.353 124.809 151.556 117.668C156.997 113.077 162.099 107.466 163.799 100.495C169.921 77.5407 174.172 54.0764 180.634 31.1221C188.286 16.8395 205.291 11.2284 220.255 7.99783C241.001 4.25713 263.107 4.93726 282.663 13.6089C313.952 27.5515 344.901 42.1742 376.189 55.9467C393.874 62.918 413.26 63.2581 432.135 63.2581C466.655 64.1082 501.175 64.7884 535.865 65.6385C557.291 65.9786 579.227 71.0795 597.252 83.3218C604.734 88.9328 612.046 96.2442 613.407 105.936C614.597 114.098 609.156 121.579 602.694 126.17Z" fill="#546C81" stroke="#231F20" stroke-width="12" stroke-miterlimit="10"/>
<path d="M602.694 126.17C579.227 144.703 555.76 163.237 532.124 181.6C525.492 187.211 518.52 193.162 516.309 201.834C513.928 209.825 516.139 217.987 517.5 225.808C522.261 255.224 527.192 284.639 531.954 314.225C533.824 325.107 531.443 336.839 524.641 345.681C513.928 359.963 496.413 366.934 479.579 370.675C450.33 376.286 418.701 371.015 393.534 354.862C360.205 334.288 327.045 313.545 293.886 292.971C283.683 286.68 273.65 280.048 262.937 274.777C248.993 268.146 233.349 266.106 218.044 265.766C167.54 264.235 117.036 263.045 66.5314 261.515C49.0164 260.835 30.8213 256.584 17.2174 245.192C8.37488 237.881 3.61353 225.638 6.84444 214.416C11.0957 198.943 24.6995 188.401 38.3034 181.09C65.3411 166.127 92.3787 151.334 119.246 136.372C130.129 130.251 141.353 124.81 151.556 117.668C156.997 113.077 162.099 107.466 163.799 100.495C169.921 77.5408 174.172 54.0764 180.634 31.1222C188.286 16.8395 205.291 11.2285 220.255 7.99789C241.001 4.25719 263.107 4.93732 282.663 13.6089C313.952 27.5515 344.9 42.1742 376.189 55.9468C393.874 62.9181 413.26 63.2581 432.135 63.2581C466.655 64.1083 501.175 64.7884 535.865 65.6386C557.291 65.9786 579.227 71.0796 597.252 83.3219C604.734 88.9329 612.046 96.2443 613.407 105.936C614.597 114.098 609.156 121.579 602.694 126.17Z" fill="white" stroke="#231F20" stroke-width="12" stroke-miterlimit="10"/>
<path d="M610.686 122.939C607.455 136.032 604.734 149.294 601.333 162.217C598.953 171.568 590.45 177.349 583.478 183.3C563.073 199.964 543.007 216.967 522.431 233.29C520.56 223.088 518.01 212.546 519.2 202.174C520.901 195.373 525.662 189.762 531.103 185.511C557.631 164.767 584.159 144.023 610.686 122.939Z" fill="#A9AAAA" stroke="#231F20" stroke-width="12" stroke-miterlimit="10"/>
<path d="M238.79 319.836C213.113 317.285 187.436 318.135 161.758 316.775C129.959 315.585 98.1604 315.585 66.5315 313.375C62.9604 296.711 60.2397 279.878 55.9885 263.555C80.9856 265.766 105.983 265.086 130.98 266.276C166.35 267.636 201.72 267.296 236.92 270.187C237.43 281.749 236.58 293.311 238.11 304.873C238.79 309.804 238.96 314.735 238.79 319.836Z" fill="#A9AAAA" stroke="#231F20" stroke-width="12" stroke-miterlimit="10"/>
<path d="M529.063 344.49C526.172 357.073 523.621 369.825 520.73 382.577C517.5 397.54 505.766 409.272 492.332 415.904C471.076 426.956 446.079 427.636 423.123 422.875L423.633 421.345C427.204 405.532 428.224 389.379 430.605 373.396C458.833 378.497 490.122 376.116 514.099 359.113C520.05 355.372 524.301 349.591 529.063 344.49Z" fill="#A9AAAA" stroke="#231F20" stroke-width="12" stroke-miterlimit="10"/>
<path d="M66.5315 313.375C47.6561 311.164 26.9102 301.642 20.1083 282.769C16.8774 269.506 13.9865 256.074 10.2455 242.811C22.3189 255.224 39.1537 261.175 55.9885 263.555C60.2397 280.048 62.9605 296.711 66.5315 313.375Z" fill="#636363" stroke="#231F20" stroke-width="12" stroke-miterlimit="10"/>
<path d="M430.605 372.886V373.396C428.224 389.379 427.204 405.532 423.633 421.345L422.783 423.045C411.219 419.474 399.826 415.053 389.793 408.252C359.355 388.699 329.426 368.635 298.988 349.251C285.384 340.58 272.63 330.378 257.326 324.767C251.374 322.386 245.082 321.706 239.131 320.006C239.131 314.905 238.96 309.804 238.45 304.873C236.92 293.311 237.77 281.749 237.26 270.187C252.394 272.397 266.678 279.028 279.432 287.36C316.843 310.654 354.253 333.948 391.834 357.073C403.397 364.554 416.661 369.995 430.605 372.886Z" fill="#636363" stroke="#231F20" stroke-width="12" stroke-miterlimit="10"/>
</svg>
