<svg width="636" height="739" viewBox="0 0 636 739" fill="none" xmlns="http://www.w3.org/2000/svg">
<path d="M318.2 3.89999L6.79999 179.3V255.5V555.9L318.2 731.3L629.6 555.9V255.5V179.3L318.2 3.89999ZM595 268V535L318.2 690.9L41.5 535V268V200.3L318.2 44.4L595 200.3V268Z" fill="#AEAEAE" stroke="black" stroke-width="12" stroke-miterlimit="10"/>
<path d="M318.2 354.4C354.6 354.4 384.2 324.9 384.2 288.4C384.2 281.3 383.1 274.4 381 268C372.4 241.5 347.5 222.4 318.2 222.4C288.9 222.4 264 241.5 255.4 268C253.3 274.4 252.2 281.3 252.2 288.4C252.2 324.8 281.8 354.4 318.2 354.4Z" fill="#FF0000" stroke="black" stroke-width="12" stroke-miterlimit="10"/>
<path d="M41.5 200.3V268H255.5C264.1 241.5 289 222.4 318.3 222.4C347.6 222.4 372.5 241.5 381.1 268H595.1V200.3L318.2 44.4L41.5 200.3Z" fill="#FFCC00" stroke="black" stroke-width="12" stroke-miterlimit="10"/>
<path d="M384.2 288.4C384.2 324.9 354.6 354.4 318.2 354.4C281.8 354.4 252.2 324.9 252.2 288.4C252.2 281.3 253.3 274.4 255.4 268H41.4V535L318.1 690.9L595 535V268H381C383.1 274.4 384.2 281.3 384.2 288.4Z" fill="#666" stroke="black" stroke-width="12" stroke-miterlimit="10"/>
</svg>
