<svg width="168" height="167" viewBox="0 0 168 167" fill="none" xmlns="http://www.w3.org/2000/svg">
<path d="M84.2153 83.1846L25.6217 24.8217C41.7696 8.67389 61.3777 0.599976 84.2153 0.599976V83.1846Z" fill="#FF7900" stroke="black" stroke-miterlimit="10"/>
<path d="M84.2153 83.1847H1.39999C1.39999 60.347 9.47391 40.7389 25.6218 24.5911L84.2153 83.1847Z" fill="#FF0000" stroke="black" stroke-miterlimit="10"/>
<path d="M84.2153 83.1848L25.6218 141.778C9.47391 125.631 1.39999 106.022 1.39999 83.1848H84.2153Z" fill="#682F04" stroke="black" stroke-miterlimit="10"/>
<path d="M84.2153 83.1848V166C61.3777 166 41.7696 157.926 25.6217 141.778L84.2153 83.1848Z" fill="white" stroke="black" stroke-miterlimit="10"/>
<path d="M84.2153 83.1848L142.809 141.778C126.661 157.926 107.053 166 84.2153 166V83.1848Z" fill="#A0A0A0" stroke="black" stroke-miterlimit="10"/>
<path d="M84.2153 83.1848H167.031C167.031 106.022 158.957 125.631 142.809 141.778L84.2153 83.1848Z" fill="#0086FF" stroke="black" stroke-miterlimit="10"/>
<path d="M84.2153 83.1847L142.809 24.5911C158.957 40.7389 167.031 60.347 167.031 83.1847H84.2153Z" fill="#13FF00" stroke="black" stroke-miterlimit="10"/>
<path d="M84.2153 83.1846V0.599976C107.053 0.599976 126.661 8.67389 142.809 24.8217L84.2153 83.1846Z" fill="#FFD400" stroke="black" stroke-miterlimit="10"/>
<path d="M84.2154 132.782C111.607 132.782 133.812 110.576 133.812 83.1847C133.812 55.7931 111.607 33.5878 84.2154 33.5878C56.8237 33.5878 34.6184 55.7931 34.6184 83.1847C34.6184 110.576 56.8237 132.782 84.2154 132.782Z" fill="url(#paint0_radial)" stroke="black" stroke-miterlimit="10"/>
<defs>
<radialGradient id="paint0_radial" cx="0" cy="0" r="1" gradientUnits="userSpaceOnUse" gradientTransform="translate(88.8654 65.0644) rotate(-149.999) scale(49.692 44.7228)">
<stop stop-color="white"/>
<stop offset="0.0860613" stop-color="#F7F7F7"/>
<stop offset="0.218" stop-color="#E2E2E2"/>
<stop offset="0.3793" stop-color="#BFBFBF"/>
<stop offset="0.564" stop-color="#8E8E8E"/>
<stop offset="0.7683" stop-color="#505050"/>
<stop offset="0.9861" stop-color="#050505"/>
<stop offset="1"/>
</radialGradient>
</defs>
</svg>
