<svg width="430" height="458" viewBox="0 0 430 458" fill="none" xmlns="http://www.w3.org/2000/svg">
<path d="M392.7 185.7L417.7 142.4L391.3 96.6H341.3L316.3 53.3H266.3L241.3 10H188.4L163.4 53.3H113.4L88.4 96.6H38.4L12 142.4L37 185.7L12 229L37 272.3L12 315.6L38.4 361.4H88.4L113.4 404.7H163.4L188.4 448H241.3L266.3 404.7H316.3L341.3 361.4H391.3L417.7 315.6L392.7 272.3L417.7 229L392.7 185.7ZM388.3 101.6L411.9 142.4L388.3 183.2H341.2L317.6 142.4L341.2 101.6H388.3ZM191.3 183.2L167.7 142.4L191.3 101.6H238.4L262 142.4L238.4 183.2H191.3ZM262 229L238.4 269.8H191.3L167.7 229L191.3 188.2H238.4L262 229ZM187 185.7L163.4 226.5H116.3L92.7 185.7L116.3 144.9H163.4L187 185.7ZM163.4 231.5L187 272.3L163.4 313.1H116.3L92.7 272.3L116.3 231.5H163.4ZM191.3 274.8H238.4L262 315.6L238.4 356.4H191.3L167.7 315.6L191.3 274.8ZM242.6 272.3L266.2 231.5H313.3L336.9 272.3L313.3 313.1H266.2L242.6 272.3ZM266.2 226.5L242.6 185.7L266.2 144.9H313.3L336.9 185.7L313.4 226.5H266.2ZM313.3 58.3L336.9 99.1L313.3 139.9H266.2L242.6 99.1L266.2 58.3H313.3ZM191.3 15H238.4L262 55.8L238.4 96.6H191.3L167.7 55.8L191.3 15ZM116.3 58.3H163.4L187 99.1L163.4 139.9H116.3L92.7 99.1L116.3 58.3ZM17.6 142.4L41.2 101.6H88.3L111.9 142.4L88.3 183.2H41.2L17.6 142.4ZM17.6 229L41.2 188.2H88.3L111.9 229L88.3 269.8H41.2L17.6 229ZM88.3 356.4H41.2L17.6 315.6L41.2 274.8H88.3L111.9 315.6L88.3 356.4ZM116.3 399.7L92.7 358.9L116.3 318.1H163.4L187 358.9L163.4 399.7H116.3ZM238.4 443H191.3L167.7 402.2L191.3 361.4H238.4L262 402.2L238.4 443ZM313.4 399.7H266.3L242.7 358.9L266.3 318.1H313.4L337 358.9L313.4 399.7ZM412 315.6L388.4 356.4H341.3L317.7 315.6L341.3 274.8H388.4L412 315.6ZM388.3 269.8H341.2L317.6 229L341.2 188.2H388.3L411.9 229L388.3 269.8Z" fill="black" stroke="#231F20" stroke-width="10" stroke-miterlimit="10"/>
<path d="M412 315.6L388.4 356.4H341.3L317.7 315.6L341.3 274.8H388.4L412 315.6Z" fill="white" stroke="#231F20" stroke-width="10" stroke-miterlimit="10"/>
<path d="M337 358.9L313.4 399.7H266.3L242.7 358.9L266.3 318.1H313.4L337 358.9Z" fill="white" stroke="#231F20" stroke-width="10" stroke-miterlimit="10"/>
<path d="M262 402.2L238.4 443H191.3L167.7 402.2L191.3 361.4H238.4L262 402.2Z" fill="white" stroke="#231F20" stroke-width="10" stroke-miterlimit="10"/>
<path d="M187 358.9L163.4 399.7H116.3L92.7 358.9L116.3 318.1H163.4L187 358.9Z" fill="white" stroke="#231F20" stroke-width="10" stroke-miterlimit="10"/>
<path d="M111.9 315.6L88.3 356.4H41.2L17.6 315.6L41.2 274.8H88.3L111.9 315.6Z" fill="white" stroke="#231F20" stroke-width="10" stroke-miterlimit="10"/>
<path d="M111.9 229L88.3 269.8H41.2L17.6 229L41.2 188.2H88.3L111.9 229Z" fill="white" stroke="#231F20" stroke-width="10" stroke-miterlimit="10"/>
<path d="M187 272.3L163.4 313.1H116.3L92.7 272.3L116.3 231.5H163.4L187 272.3Z" fill="white" stroke="#231F20" stroke-width="10" stroke-miterlimit="10"/>
<path d="M262 315.6L238.4 356.4H191.3L167.7 315.6L191.3 274.8H238.4L262 315.6Z" fill="white" stroke="#231F20" stroke-width="10" stroke-miterlimit="10"/>
<path d="M336.9 272.3L313.3 313.1H266.2L242.6 272.3L266.2 231.5H313.3L336.9 272.3Z" fill="white" stroke="#231F20" stroke-width="10" stroke-miterlimit="10"/>
<path d="M411.9 229L388.3 269.8H341.2L317.6 229L341.2 188.2H388.3L411.9 229Z" fill="white" stroke="#231F20" stroke-width="10" stroke-miterlimit="10"/>
<path d="M411.9 142.4L388.3 183.2H341.2L317.6 142.4L341.2 101.6H388.3L411.9 142.4Z" fill="white" stroke="#231F20" stroke-width="10" stroke-miterlimit="10"/>
<path d="M336.9 185.7L313.4 226.5H266.2L242.6 185.7L266.2 144.9H313.3L336.9 185.7Z" fill="white" stroke="#231F20" stroke-width="10" stroke-miterlimit="10"/>
<path d="M262 229L238.4 269.8H191.3L167.7 229L191.3 188.2H238.4L262 229Z" fill="white" stroke="#231F20" stroke-width="10" stroke-miterlimit="10"/>
<path d="M187 185.7L163.4 226.5H116.3L92.7 185.7L116.3 144.9H163.4L187 185.7Z" fill="white" stroke="#231F20" stroke-width="10" stroke-miterlimit="10"/>
<path d="M111.9 142.4L88.3 183.2H41.2L17.6 142.4L41.2 101.6H88.3L111.9 142.4Z" fill="white" stroke="#231F20" stroke-width="10" stroke-miterlimit="10"/>
<path d="M262 142.4L238.4 183.2H191.3L167.7 142.4L191.3 101.6H238.4L262 142.4Z" fill="white" stroke="#231F20" stroke-width="10" stroke-miterlimit="10"/>
<path d="M187 99.1001L163.4 139.9H116.3L92.7 99.1001L116.3 58.3H163.4L187 99.1001Z" fill="white" stroke="#231F20" stroke-width="10" stroke-miterlimit="10"/>
<path d="M336.9 99.1001L313.3 139.9H266.2L242.6 99.1001L266.2 58.3H313.3L336.9 99.1001Z" fill="white" stroke="#231F20" stroke-width="10" stroke-miterlimit="10"/>
<path d="M262 55.8L238.4 96.6H191.3L167.7 55.8L191.3 15H238.4L262 55.8Z" fill="white" stroke="#231F20" stroke-width="10" stroke-miterlimit="10"/>
</svg>
